<svg width="39" height="49" viewBox="0 0 39 49" fill="none" xmlns="http://www.w3.org/2000/svg" class="staircase" data-v-dd9e2f5e="" style="transform: translate(0px, 0px);"><path fill-rule="evenodd" clip-rule="evenodd" d="M0 17.9134C0 7.93057 8.89981 0 19.5 0C30.1002 0 39 7.93057 39 17.9134V49H0V17.9134ZM19.5 3C10.2907 3 3 9.84146 3 17.9134V46H36V17.9134C36 9.84146 28.7093 3 19.5 3Z" fill="#F2CECF" style="fill:#f2cecf" data-v-dd9e2f5e=""></path> <rect x="22" y="19" width="0" height="11" fill="#F2CECF" style="fill:#f2cecf" data-v-dd9e2f5e=""></rect> <rect x="14" y="28" width="0" height="11" fill="#F2CECF" style="fill:#f2cecf" data-v-dd9e2f5e=""></rect> <rect x="3" y="37" width="0" height="11" fill="#F2CECF" style="fill:#f2cecf" data-v-dd9e2f5e=""></rect> <path fill-rule="evenodd" clip-rule="evenodd" d="M0 37H39V49H0V37ZM3 40V46H36V40H3Z" fill="#F2CECF" style="fill:#f2cecf" data-v-dd9e2f5e=""></path> <path fill-rule="evenodd" clip-rule="evenodd" d="M11 28H39V40H11V28ZM14 31V37H36V31H14Z" fill="#F2CECF" style="fill:#f2cecf" data-v-dd9e2f5e=""></path> <path fill-rule="evenodd" clip-rule="evenodd" d="M19 19H39V31H19V19ZM22 22V28H36V22H22Z" fill="#F2CECF" style="fill:#f2cecf" data-v-dd9e2f5e=""></path></svg>
